<svg width="82" height="76" viewBox="0 0 82 76" fill="none" xmlns="http://www.w3.org/2000/svg">
<path d="M36.5547 56.3555C35.9295 55.8865 35.2809 55.4495 34.6115 55.0459L34.4721 54.9614C32.7613 53.9645 30.9913 52.9338 29.2002 52.0087C28.7388 51.7646 28.2825 51.5111 27.8315 51.2483C26.6065 50.5513 25.335 49.8289 23.8776 49.4825C23.8139 49.4676 23.7473 49.4707 23.6854 49.4916C23.6234 49.5125 23.5686 49.5503 23.527 49.6008L22.8384 50.4752C22.7989 50.5245 22.774 50.5839 22.7665 50.6466C22.7591 50.7093 22.7693 50.7729 22.7961 50.8301L22.9229 51.1469C22.9989 51.4004 23.1256 51.6454 23.2904 51.8608C27.0627 56.2414 31.6799 60.1574 38.2656 64.5633C38.6669 64.8168 39.0893 65.0407 39.5244 65.2392C40.1031 65.5265 40.741 65.6827 41.3916 65.6954C42.2621 65.6839 43.0992 65.3584 43.7487 64.7787L44.1712 64.4366C44.4753 64.1916 44.7921 63.9381 45.0836 63.6551C45.882 62.8778 46.6846 62.1005 47.4915 61.3317C49.682 59.2595 51.823 57.1355 53.9124 54.9614C55.1924 53.5421 56.3836 52.0467 57.482 50.4795C57.8453 49.9725 58.2085 49.4741 58.5803 48.9798L58.6225 48.9249C58.8337 48.6461 59.3407 47.9913 58.6014 47.2225C58.5402 47.159 58.4571 47.1212 58.3691 47.1169C57.1187 47.0578 56.2823 47.7886 55.4796 48.4982C55.1786 48.7782 54.8581 49.0365 54.5207 49.2713C53.2602 50.1365 52.0566 51.0819 50.9174 52.1016L50.7104 52.279C50.1317 52.7817 49.5698 53.314 49.0249 53.8336C48.5053 54.3278 47.9688 54.8389 47.4197 55.3121C47.0477 55.6419 46.6897 55.9872 46.3467 56.347C45.7075 57.0591 44.9724 57.6789 44.1627 58.1888L44.1458 58.079C44.101 57.7911 44.0784 57.5002 44.0782 57.2088C44.1331 55.3374 44.1881 53.4618 44.2514 51.5904C44.3486 48.5996 44.45 45.5074 44.5176 42.4575L44.5809 39.6018C44.7795 31.0814 44.9822 22.2737 44.2092 13.6139C43.9001 10.5104 43.4986 7.41685 43.0053 4.33729L42.8152 3.05733C42.6981 2.57426 42.484 2.12008 42.1857 1.72244C41.9696 1.38097 41.7639 1.03301 41.569 0.679038C41.5377 0.622388 41.4912 0.575635 41.4347 0.544082C41.3782 0.512528 41.3139 0.497436 41.2493 0.500514C41.1847 0.503593 41.1222 0.524719 41.0689 0.561498C41.0157 0.598278 40.9738 0.649241 40.948 0.708608C40.1623 2.57153 40.1369 4.17677 40.1158 5.59614C40.1126 6.07113 40.0942 6.5459 40.0609 7.01973C39.9975 7.82235 39.9215 8.62074 39.8455 9.41491C39.7483 10.4245 39.6469 11.4637 39.5751 12.4944C39.4737 13.9729 39.4104 15.481 39.3512 16.9384L39.2921 18.3282L39.271 18.8098C39.1949 20.5629 39.1147 22.3751 39.0555 24.162C38.9516 27.3292 38.8939 30.4978 38.8823 33.6667L38.8612 35.4916C38.8612 36.0957 38.8485 36.704 38.8401 37.308C38.8232 38.626 38.8063 39.9905 38.8063 41.3296C38.8063 43.0531 38.819 45.0977 38.8823 47.1718C38.9119 48.0336 38.9626 48.9038 39.0091 49.7486C39.0682 50.6991 39.1231 51.6834 39.1442 52.655C39.1569 53.2379 39.2076 53.8293 39.2498 54.4081C39.3935 55.6373 39.4019 56.8793 39.2752 58.1128C38.3227 57.6009 37.413 57.0132 36.5547 56.3555Z" fill="#282826"/>
<path d="M79.8243 43.1333C79.5927 43.0073 79.337 42.9319 79.0741 42.9122C78.8112 42.8926 78.5471 42.9291 78.2993 43.0193C78.2508 43.0322 78.2056 43.0555 78.1669 43.0876C78.1283 43.1197 78.097 43.1598 78.0754 43.2052C77.1799 45.1441 76.9306 55.6077 76.749 63.2495C76.6772 66.2361 76.6223 68.644 76.5378 69.8099L75.3465 69.9324C74.4936 70.0364 73.6367 70.1055 72.7781 70.1394C69.5127 70.2154 65.6475 70.2957 61.7654 70.2957H61.7105C59.1505 70.2957 56.5906 70.2957 54.0307 70.3041C45.958 70.3168 37.6065 70.3337 29.4029 70.1858C24.5615 70.0615 19.7234 69.8291 14.8924 69.4888C12.8943 69.3621 10.8244 69.2354 8.78827 69.1213C8.41256 69.0917 8.03882 69.0409 7.66883 68.9692C7.52956 68.9459 7.39016 68.9233 7.25062 68.9016L7.16613 68.3778C7.07517 67.8662 7.01172 67.3501 6.97604 66.8317C6.89155 65.2265 6.82396 63.6213 6.75215 62.0118C6.62965 59.2111 6.50714 56.3132 6.30437 53.4702C6.05873 49.8399 5.83062 46.2083 5.62004 42.5757C5.59319 42.0519 5.36765 41.5579 4.98935 41.1945C4.61105 40.8311 4.10845 40.6256 3.58392 40.6199C3.04735 40.6098 2.52728 40.8055 2.13053 41.1669C1.73379 41.5283 1.4905 42.0279 1.45064 42.5631C1.12114 47.7167 0.390339 60.4741 0.753629 67.6639L0.77475 68.1582C0.787423 69.2692 0.914153 70.3759 1.15494 71.4574C1.65341 73.3752 2.80242 74.237 5.00751 74.3341C6.75638 74.4186 8.50524 74.5073 10.2499 74.6002C13.0379 74.7481 15.9189 74.9002 18.7576 74.9889C24.9801 75.1916 30.6111 75.3057 35.9802 75.3437C38.3711 75.3606 40.7621 75.386 43.1573 75.4113C47.445 75.4536 51.796 75.5 56.1682 75.5C62.0611 75.5 67.9962 75.4155 73.8722 75.141C75.148 75.1072 76.4195 74.9889 77.6783 74.7903C79.6849 74.4313 80.8128 73.202 80.9353 71.225C80.986 70.4562 81.0493 69.624 81.1127 68.7834C81.1972 67.6428 81.2901 66.4642 81.345 65.387C81.3028 57.9184 80.5551 45.1399 80.4115 44.1387C80.393 43.9384 80.3308 43.7446 80.2294 43.5709C80.1279 43.3972 79.9897 43.2479 79.8243 43.1333Z" fill="#282826"/>
</svg>
