<?xml version="1.0" encoding="utf-8"?>
<!-- Generator: Adobe Illustrator 27.8.0, SVG Export Plug-In . SVG Version: 6.00 Build 0)  -->
<svg version="1.1" id="Calque_1" xmlns="http://www.w3.org/2000/svg" xmlns:xlink="http://www.w3.org/1999/xlink" x="0px" y="0px"
	 viewBox="0 0 700 700" style="enable-background:new 0 0 700 700;" xml:space="preserve">
<style type="text/css">
	.st0{fill-rule:evenodd;clip-rule:evenodd;fill:#CC6699;}
	.st1{fill:#FFFFFF;}
</style>
<path class="st0" d="M350,0c193.3,0,350,156.7,350,350S543.3,700,350,700S0,543.3,0,350S156.7,0,350,0z"/>
<path class="st1" d="M569.5,149.8c-15.9-62.2-118.9-82.5-216.5-47.9C292,122.4,235.5,154.8,187,197.1c-53.7,50.3-62.3,94-58.8,112.3
	c12.5,64.5,100.8,106.6,137.1,137.9v0.2c-10.7,5.3-89.1,45-107.5,85.5c-19.4,42.8,3.1,73.5,18,77.6c45.8,11,93.5-8.3,118.7-48.1
	c20.6-31.9,25-71.6,11.8-107.2c17.5-4.4,35.7-5.5,53.6-3.1c61.4,7.2,73.5,45.5,71.2,61.6c-2.2,11.6-9.3,21.6-19.5,27.5
	c-4.3,2.7-5.6,3.6-5.2,5.6c0.5,2.9,2.5,2.8,6.2,2.1c18.9-5.9,32.2-22.9,33.4-42.7c1.5-37.5-34.5-79.7-98.3-78.6
	c-18.5-0.5-37,2-54.7,7.5c-0.9-1-1.8-2-2.7-3c-39.4-42.1-112.4-71.9-109.3-128.4c1.1-20.6,8.3-74.7,140-140.4
	c108-53.8,194.4-39,209.4-6.2c21.3,46.9-46.2,134-158.4,146.6c-25.1,5.1-51.2-1.5-70.8-18c-5.9-6.5-6.8-6.8-9-5.6
	c-3.6,2-1.3,7.7,0,11.1c8.7,15.6,23.3,27.1,40.5,31.9c44.1,9.6,90.1,5,131.5-13C532.1,284.1,585.1,210.9,569.5,149.8z M280.5,466.6
	c5,17.1,4.7,35.3-0.7,52.3c-0.6,1.8-1.2,3.5-1.9,5.2c-0.7,1.7-1.5,3.4-2.3,5c-4.2,8.6-9.7,16.6-16.2,23.6
	c-20.3,22.2-48.7,30.6-60.9,23.5c-13.1-7.6-6.6-38.9,17-63.8c18.1-17.9,39-32.8,61.9-44l0,0L280.5,466.6z"/>
</svg>
