<svg width="202" height="200" viewBox="0 0 202 200" fill="none" xmlns="http://www.w3.org/2000/svg">
<g id="instagram 1" clip-path="url(#clip0_19_43)">
<path id="Vector" d="M101.045 48.7392C72.6581 48.7392 49.7614 71.6359 49.7614 100.022C49.7614 128.409 72.6581 151.306 101.045 151.306C129.431 151.306 152.328 128.409 152.328 100.022C152.328 71.6359 129.431 48.7392 101.045 48.7392ZM101.045 133.363C82.7005 133.363 67.7039 118.411 67.7039 100.022C67.7039 81.6336 82.6559 66.6816 101.045 66.6816C119.433 66.6816 134.385 81.6336 134.385 100.022C134.385 118.411 119.389 133.363 101.045 133.363ZM166.387 46.6414C166.387 53.2917 161.031 58.6031 154.426 58.6031C147.775 58.6031 142.464 53.2471 142.464 46.6414C142.464 40.0358 147.82 34.6798 154.426 34.6798C161.031 34.6798 166.387 40.0358 166.387 46.6414ZM200.353 58.7816C199.594 42.7584 195.934 28.5651 184.196 16.8713C172.502 5.17749 158.309 1.51759 142.285 0.714199C125.771 -0.223092 76.2734 -0.223092 59.7592 0.714199C43.7806 1.47296 29.5874 5.13285 17.8489 16.8267C6.11048 28.5205 2.49521 42.7138 1.69182 58.737C0.754531 75.2511 0.754531 124.749 1.69182 141.263C2.45058 157.286 6.11048 171.48 17.8489 183.173C29.5874 194.867 43.736 198.527 59.7592 199.331C76.2734 200.268 125.771 200.268 142.285 199.331C158.309 198.572 172.502 194.912 184.196 183.173C195.89 171.48 199.549 157.286 200.353 141.263C201.29 124.749 201.29 75.2958 200.353 58.7816ZM179.018 158.982C175.537 167.73 168.797 174.47 160.005 177.996C146.838 183.218 115.595 182.013 101.045 182.013C86.4943 182.013 55.2067 183.173 42.0846 177.996C33.3365 174.515 26.597 167.775 23.071 158.982C17.8489 145.816 19.054 114.573 19.054 100.022C19.054 85.4721 17.8936 54.1844 23.071 41.0623C26.5523 32.3143 33.2919 25.5747 42.0846 22.0487C55.2513 16.8267 86.4943 18.0318 101.045 18.0318C115.595 18.0318 146.883 16.8713 160.005 22.0487C168.753 25.5301 175.492 32.2697 179.018 41.0623C184.24 54.229 183.035 85.4721 183.035 100.022C183.035 114.573 184.24 145.86 179.018 158.982Z" fill="#D9D9D9"/>
</g>
<defs>
<clipPath id="clip0_19_43">
<rect width="200.045" height="200" fill="white" transform="translate(0.977692)"/>
</clipPath>
</defs>
</svg>
