<svg width="94" height="76" viewBox="0 0 94 76" fill="none" xmlns="http://www.w3.org/2000/svg">
<path d="M92.4981 35.9618C92.2977 32.1663 92.1356 28.3026 91.9778 24.5667C91.8243 20.929 91.6665 17.1676 91.4661 13.4702C91.1846 8.09674 88.4211 4.18607 83.4784 2.15611C81.7299 1.43965 79.5848 1.0601 76.9151 0.996127C69.8486 0.825542 62.6585 0.748779 55.7071 0.672015L48.2867 0.586723C48.224 0.536041 48.1455 0.508885 48.0649 0.509959H42.2991C36.7594 0.508407 31.2196 0.508407 25.6798 0.509959C23.0611 0.483726 20.4421 0.509319 17.8244 0.586723C14.2464 0.714662 11.4957 1.41406 9.15866 2.78727C4.42492 5.56781 1.90878 9.53392 1.66144 14.579C1.5335 17.2358 1.48659 19.9396 1.44394 22.5538L1.41835 24.1915L1.29894 30.7675C1.16674 37.9961 1.026 45.4677 0.970564 52.8157C0.949241 55.7455 1.0985 59.2041 2.35657 62.6968C4.22021 67.857 7.65324 71.1962 12.8561 72.9021C17.7007 74.4459 22.75 75.2434 27.825 75.2519C40.4568 75.4182 53.7028 75.495 69.2942 75.495H72.3221C75.1871 75.544 78.0468 75.2331 80.8343 74.5696C87.227 72.9234 91.014 68.9872 92.093 62.8631C92.4341 60.7863 92.673 58.6966 92.8052 56.5941C93.2743 50.2185 92.9203 43.7576 92.5834 37.5056L92.4981 35.9618ZM33.4415 69.6951C27.97 69.6738 22.1274 69.4691 16.4469 68.066C14.1611 67.5031 12.5277 66.8463 11.2227 65.955L39.4034 39.9066L40.1924 40.7596L42.6019 43.3482C44.9688 45.8601 47.293 46.0648 49.9072 43.9964C50.9819 43.152 51.9969 42.1925 52.9778 41.2671L54.1121 40.2137L81.6958 68.1982C80.7405 68.9829 79.5891 69.1492 78.3779 69.3241L78.0282 69.371C76.7232 69.5458 75.4097 69.6269 74.092 69.6141L66.373 69.6439C55.5834 69.6866 44.4186 69.7292 33.4415 69.6951ZM76.51 11.5383C72.3818 15.2826 68.1129 19.1549 64.0445 23.0997C60.0122 27.0512 56.0469 31.0704 52.1504 35.1558C50.5597 36.8062 48.9093 38.5121 47.2887 40.1796L13.0139 6.39942L13.7431 6.20324C14.6814 5.94737 15.5599 5.70428 16.464 5.52517C20.9418 4.64239 25.5604 4.7618 30.0255 4.88121C31.0234 4.90679 32.0171 4.93238 33.015 4.94944C34.5332 4.97076 36.0728 5.02194 37.5654 5.07311C38.8618 5.11576 40.2009 5.15841 41.5229 5.184L52.6536 5.39723C60.6711 5.54649 68.9659 5.70428 77.1241 5.90045C78.267 5.96442 79.41 6.12648 80.5273 6.38236C80.9665 6.46765 81.4229 6.56147 81.8749 6.63824V6.65103C80.0923 8.28865 78.2713 9.94333 76.5057 11.5426L76.51 11.5383ZM18.7839 52.6366C15.263 55.9716 11.7884 59.3552 8.36117 62.7864C6.93252 59.4045 6.19474 56.6283 5.97298 53.8434C5.3674 46.1245 5.61901 38.4439 5.93033 31.2324C6.07533 27.9486 6.13503 24.6051 6.18621 21.3683C6.22886 19.172 6.26724 16.8989 6.33121 14.6685C6.39944 12.2974 7.18413 10.6385 8.94969 9.16716L35.7316 35.6079C30.2771 41.6509 24.4303 47.2333 18.7797 52.6408L18.7839 52.6366ZM86.2931 62.2064C86.1696 62.8845 86.0029 63.5539 85.7941 64.2108L85.5723 64.9784L85.4657 65.0125L57.0761 37.2114C66.889 27.036 76.1987 18.3617 85.5041 10.7067L85.6278 11.2312C85.7941 11.8496 85.9007 12.485 85.9562 13.1247C86.2675 19.5643 86.5234 25.9186 86.7153 30.7377C86.8901 35.2582 87.0394 39.7147 87.1588 43.9921C87.3123 49.4082 87.3294 55.8052 86.2931 62.2064Z" fill="#282826"/>
</svg>
