<svg width="75" height="75" viewBox="0 0 75 75" fill="none" xmlns="http://www.w3.org/2000/svg">
<path d="M37.5 0C16.7885 0 0 16.7885 0 37.5C0 58.2115 16.7885 75 37.5 75C58.2115 75 75 58.2115 75 37.5C75 16.7885 58.2115 0 37.5 0ZM55.3009 46.6957C42.4775 59.5191 19.5726 55.4274 19.5726 55.4274C19.5726 55.4274 15.4387 32.5647 28.3043 19.6991C35.4331 12.5703 47.2441 12.8656 54.7104 20.2897C62.1766 27.7137 62.4297 39.5669 55.3009 46.6957Z" fill="black"/>
<path d="M41.8027 21.9771L38.1329 29.5277L30.5823 33.1975L38.1329 36.8674L41.8027 44.418L45.4726 36.8674L53.0232 33.1975L45.4726 29.5277L41.8027 21.9771Z" fill="black"/>
</svg>
