<svg width="75" height="75" viewBox="0 0 75 75" fill="none" xmlns="http://www.w3.org/2000/svg">
<path d="M37.5 74.8608C36.4684 74.8608 35.5055 74.5857 34.6115 74.1043L25.4645 68.6711C24.089 67.9146 24.7767 67.6395 25.1894 67.502C27.0463 66.883 27.3902 66.7455 29.3158 65.6451C29.5222 65.5075 29.7973 65.5763 30.0036 65.7139L37.0186 69.9091C37.2937 70.0466 37.6375 70.0466 37.8438 69.9091L65.2848 54.0222C65.5599 53.8847 65.6974 53.6096 65.6974 53.2657V21.5607C65.6974 21.2169 65.5599 20.9418 65.2848 20.8042L37.8438 4.98614C37.5688 4.84859 37.2249 4.84859 37.0186 4.98614L9.5776 20.8042C9.30251 20.9418 9.16496 21.2856 9.16496 21.5607V53.2657C9.16496 53.5408 9.30251 53.8847 9.5776 54.0222L17.074 58.355C21.1317 60.4182 23.6763 58.0111 23.6763 55.604V24.3117C23.6763 23.8991 24.0202 23.4864 24.5016 23.4864H28.0091C28.4218 23.4864 28.8344 23.8303 28.8344 24.3117V55.604C28.8344 61.0372 25.8771 64.2008 20.719 64.2008C19.1372 64.2008 17.8993 64.2008 14.3918 62.4815L7.1705 58.355C5.38237 57.3234 4.28198 55.3977 4.28198 53.3345V21.6295C4.28198 19.5663 5.38237 17.6406 7.1705 16.609L34.6115 0.72213C36.3308 -0.24071 38.6691 -0.24071 40.3885 0.72213L67.8295 16.609C69.6176 17.6406 70.718 19.5663 70.718 21.6295V53.3345C70.718 55.3977 69.6176 57.3234 67.8295 58.355L40.3885 74.2419C39.4944 74.6545 38.4628 74.8608 37.5 74.8608ZM45.9592 53.0594C33.9237 53.0594 31.4478 47.5574 31.4478 42.8808C31.4478 42.4681 31.7917 42.0555 32.2731 42.0555H35.8494C36.262 42.0555 36.6059 42.3306 36.6059 42.7432C37.1561 46.3883 38.7379 48.1764 46.028 48.1764C51.805 48.1764 54.2809 46.8697 54.2809 43.7748C54.2809 41.9867 53.5932 40.68 44.5837 39.7859C37.0873 39.0294 32.4107 37.3788 32.4107 31.3955C32.4107 25.8248 37.0873 22.5236 44.9276 22.5236C53.7307 22.5236 58.0635 25.5497 58.6137 32.152C58.6137 32.3583 58.5449 32.5646 58.4074 32.771C58.2698 32.9085 58.0635 33.0461 57.8572 33.0461H54.2809C53.937 33.0461 53.5932 32.771 53.5244 32.4271C52.6991 28.6445 50.5671 27.4066 44.9276 27.4066C38.6004 27.4066 37.8438 29.6073 37.8438 31.2579C37.8438 33.2524 38.7379 33.8713 47.2659 34.9717C55.7252 36.0721 59.7141 37.6539 59.7141 43.5685C59.6453 49.6207 54.6936 53.0594 45.9592 53.0594Z" fill="#539E43"/>
</svg>
