<svg width="51" height="75" viewBox="0 0 51 75" fill="none" xmlns="http://www.w3.org/2000/svg">
<g clip-path="url(#clip0_2064_464)">
<path fill-rule="evenodd" clip-rule="evenodd" d="M22.8942 36.4222C27.9685 31.5875 26.4201 25.6081 21.8244 18.3625C17.2287 11.1169 7.97759 8.53909 6.25173 10.1834C4.52587 11.8278 4.14333 23.5841 8.73902 30.8297C13.3347 38.0753 17.8199 41.2568 22.8942 36.4222Z" fill="url(#paint0_linear_2064_464)"/>
<path fill-rule="evenodd" clip-rule="evenodd" d="M27.2817 37.0913C31.0357 43.0099 36.0544 40.8458 42.2664 34.9272C48.4785 29.0086 51.0543 17.6712 49.7775 15.6582C48.5007 13.6452 38.7979 13.7461 32.5858 19.6647C26.3738 25.5833 23.5277 31.1727 27.2817 37.0913Z" fill="url(#paint1_linear_2064_464)"/>
<path fill-rule="evenodd" clip-rule="evenodd" d="M25.2292 33.8353C31.4625 34.6006 33.9139 28.842 35.0568 19.5335C36.1998 10.225 31.4882 0.386481 29.3682 0.126169C27.2481 -0.134144 20.1255 8.2513 18.9826 17.5598C17.8396 26.8683 18.9958 33.0699 25.2292 33.8353Z" fill="url(#paint2_linear_2064_464)"/>
<path fill-rule="evenodd" clip-rule="evenodd" d="M23.6594 74.9999C36.7284 74.9999 47.3271 71.2035 47.3271 53.9866C47.3271 36.7696 36.7284 22.6414 23.6594 22.6414C10.5904 22.6414 6.10352e-05 36.7696 6.10352e-05 53.9866C6.10352e-05 71.2035 10.5904 74.9999 23.6594 74.9999Z" fill="url(#paint3_linear_2064_464)"/>
<path d="M35.6133 50.4716C37.4803 50.4716 38.9938 49.7677 38.9938 48.8993C38.9938 48.031 37.4803 47.327 35.6133 47.327C33.7463 47.327 32.2328 48.031 32.2328 48.8993C32.2328 49.7677 33.7463 50.4716 35.6133 50.4716Z" fill="#EAADCC"/>
<path d="M10.5789 49.5165C12.432 49.7441 14.02 49.2298 14.1258 48.3679C14.2316 47.506 12.8152 46.6228 10.9621 46.3953C9.10903 46.1678 7.52102 46.682 7.41519 47.5439C7.30937 48.4058 8.7258 49.289 10.5789 49.5165Z" fill="#EAADCC"/>
<path d="M25.8253 48.3426C24.8078 49.1694 23.6327 49.5067 22.2998 49.3544C20.9669 49.2021 19.9789 48.6489 19.3359 47.6947" stroke="black" stroke-width="0.943396" stroke-linecap="round" stroke-linejoin="round"/>
<path fill-rule="evenodd" clip-rule="evenodd" d="M12.7333 40.16C13.6663 40.1275 14.5241 40.4761 15.1569 41.0661C15.7896 41.6561 16.1973 42.4875 16.2299 43.4204C16.2624 44.3534 15.9138 45.2113 15.3237 45.844C14.7337 46.4767 13.9022 46.8843 12.9692 46.9169C12.0363 46.9495 11.1785 46.6009 10.5458 46.0108C9.91314 45.4208 9.50555 44.5894 9.47296 43.6564C9.44039 42.7234 9.789 41.8656 10.379 41.2329C10.969 40.6002 11.8003 40.1926 12.7333 40.16Z" fill="black"/>
<path fill-rule="evenodd" clip-rule="evenodd" d="M12.9108 42.9857C12.8896 42.3783 12.3797 41.903 11.7725 41.9242C11.165 41.9454 10.6897 42.4551 10.7109 43.0626C10.7321 43.67 11.2418 44.1453 11.8493 44.1241C12.4565 44.1027 12.932 43.5932 12.9108 42.9857Z" fill="white"/>
<path fill-rule="evenodd" clip-rule="evenodd" d="M33.2161 41.018C34.1491 40.9855 35.0069 41.3341 35.6396 41.9241C36.2724 42.5141 36.68 43.3455 36.7125 44.2784C36.7451 45.2115 36.3965 46.0693 35.8065 46.702C35.2165 47.3347 34.3851 47.7423 33.4521 47.7749C32.5191 47.8075 31.6613 47.4589 31.0286 46.8688C30.3959 46.2788 29.9882 45.4474 29.9557 44.5144C29.9231 43.5814 30.2717 42.7236 30.8618 42.0909C31.4518 41.4582 32.2832 41.0506 33.2161 41.018Z" fill="black"/>
<path d="M15.7584 43.4369C15.8145 45.0426 14.5584 46.3894 12.9528 46.4455C11.3473 46.5016 10.0005 45.2456 9.94438 43.6399C9.88832 42.0344 11.1442 40.6875 12.7497 40.6314C14.3554 40.5754 15.7024 41.8313 15.7584 43.4369ZM16.7013 43.4039C16.627 41.2777 14.8432 39.6144 12.7168 39.6886C10.5906 39.7629 8.92731 41.5466 9.00156 43.6728C9.07582 45.7992 10.8595 47.4626 12.9857 47.3883C15.1121 47.3141 16.7755 45.5303 16.7013 43.4039Z" fill="white" stroke="white" stroke-width="0.471698"/>
<path d="M36.2411 44.2949C36.2972 45.9006 35.0413 47.2475 33.4356 47.3035C31.8301 47.3596 30.4831 46.1036 30.427 44.4979C30.371 42.8924 31.6271 41.5455 33.2326 41.4895C34.8382 41.4334 36.185 42.6894 36.2411 44.2949ZM37.1839 44.262C37.1097 42.1357 35.326 40.4724 33.1996 40.5466C31.0734 40.6209 29.41 42.4046 29.4842 44.5308C29.5585 46.6572 31.3423 48.3206 33.4685 48.2463C35.5949 48.1721 37.2582 46.3884 37.1839 44.262Z" fill="white" stroke="white" stroke-width="0.471698"/>
<path fill-rule="evenodd" clip-rule="evenodd" d="M33.3935 43.8438C33.3722 43.2363 32.8625 42.761 32.2551 42.7822C31.6477 42.8034 31.1723 43.3132 31.1935 43.9206C31.2147 44.528 31.7245 45.0033 32.3319 44.9821C32.9393 44.9609 33.4147 44.4512 33.3935 43.8438Z" fill="white"/>
<path d="M5.73901 55.5816L17.3742 67.6885" stroke="#ECB732" stroke-width="1.72956" stroke-linecap="round"/>
<path d="M15.8019 56.9967L8.41196 64.8583" stroke="#ECB732" stroke-width="1.72956" stroke-linecap="round"/>
<path d="M41.4308 55.5816L29.7956 67.6885" stroke="#ECB732" stroke-width="1.72956" stroke-linecap="round"/>
<path d="M31.3679 56.9967L38.7578 64.8583" stroke="#ECB732" stroke-width="1.72956" stroke-linecap="round"/>
<path d="M28.3805 28.8521L20.6761 36.5565" stroke="#FFC73B" stroke-width="1.72956" stroke-linecap="round"/>
<path d="M26.8082 36.5564L19.1038 28.852" stroke="#FFC73B" stroke-width="1.72956" stroke-linecap="round"/>
</g>
<defs>
<linearGradient id="paint0_linear_2064_464" x1="5.58496" y1="10.6978" x2="8.192" y2="23.3497" gradientUnits="userSpaceOnUse">
<stop stop-color="#52CE63"/>
<stop offset="1" stop-color="#51A256"/>
</linearGradient>
<linearGradient id="paint1_linear_2064_464" x1="51.3905" y1="17.7144" x2="38.7372" y2="20.3185" gradientUnits="userSpaceOnUse">
<stop stop-color="#52CE63"/>
<stop offset="1" stop-color="#51A256"/>
</linearGradient>
<linearGradient id="paint2_linear_2064_464" x1="29.2827" y1="0.11568" x2="26.8486" y2="19.9404" gradientUnits="userSpaceOnUse">
<stop stop-color="#8AE99C"/>
<stop offset="1" stop-color="#52CE63"/>
</linearGradient>
<linearGradient id="paint3_linear_2064_464" x1="24.3156" y1="31.7898" x2="20.3867" y2="74.9349" gradientUnits="userSpaceOnUse">
<stop stop-color="#FFE56C"/>
<stop offset="1" stop-color="#FFC63A"/>
</linearGradient>
<clipPath id="clip0_2064_464">
<rect width="50.1572" height="75" fill="white"/>
</clipPath>
</defs>
</svg>
