<svg width="44" height="40" viewBox="0 0 44 40" fill="none" xmlns="http://www.w3.org/2000/svg">
<path d="M43.2088 17.3503C43.1341 12.8974 41.325 9.09541 37.8293 6.05532C35.0266 3.61253 31.5826 1.83404 27.5987 0.765802C26.0576 0.354204 24.4284 3.76901e-05 22.7227 3.76901e-05C21.8263 -0.00228906 20.9329 0.103121 20.0616 0.314001C16.0624 1.29418 13.1295 2.4256 10.5547 3.98967C6.70095 6.32334 4.25624 8.64169 2.62325 11.5133C0.417848 15.3862 -0.384291 19.3835 0.168974 23.7349C0.494424 26.2964 1.4344 28.8253 3.12674 31.6893C4.46108 33.9464 6.17065 35.566 8.35691 36.638C9.50556 37.2047 10.6351 37.7522 11.8086 38.25C14.9099 39.5709 18.0879 40.107 22.1215 39.9825C22.3723 39.9481 22.6805 39.9117 23.0309 39.8696C23.967 39.7566 25.2478 39.6054 26.4921 39.3795C29.9764 38.7515 32.8288 37.6871 35.2123 36.125C36.0078 35.6132 36.7348 35.0021 37.3756 34.3063C38.5614 32.9818 39.574 31.5119 40.3888 29.9319C42.3645 26.1566 43.2853 22.0407 43.2088 17.3503ZM7.26187 8.48471C10.2675 5.75476 13.5335 3.85758 17.2417 2.68404L17.8849 2.4792L17.3968 2.94249C15.1186 5.11534 13.6388 7.82424 12.605 9.93966L12.5629 10.0277L12.4633 10.0258C11.1883 10.0143 8.38563 9.31365 7.29441 8.7355L7.09914 8.63212L7.26187 8.48471ZM1.71008 19.7989C2.06998 16.1749 3.41007 12.9587 5.80692 9.96838L5.872 9.88797L11.845 11.6531L11.7875 11.8062C10.8359 14.3577 10.1638 17.0048 9.78315 19.7012L9.764 19.8333L1.69093 19.9731L1.71008 19.7989ZM4.62572 31.1954L4.55298 31.0843C2.55816 27.9868 1.60478 24.8357 1.64307 21.4548L1.64499 21.3017H9.43855L9.61851 29.0704L4.62189 31.1954H4.62572ZM11.575 36.3796C9.37346 35.4109 7.09531 34.4078 5.45849 32.3766L5.34363 32.233L5.50444 32.1449C6.96513 31.3256 8.47369 30.8489 9.75635 30.489L9.92864 30.443L9.95353 30.6153C10.3268 32.9375 10.9682 34.7255 11.9637 36.2379L12.2547 36.6782L11.575 36.3796ZM19.7764 38.2557L19.6366 38.2672C19.3819 38.2887 19.1265 38.2995 18.8709 38.2998C17.8218 38.278 16.7778 38.1464 15.7561 37.9073C15.568 37.8499 15.4086 37.7234 15.3101 37.5531L15.0861 37.1894C14.4926 36.2226 13.8934 35.7191 13.3038 34.2278C12.7141 32.7403 12.2413 31.3198 12.0881 30.018L12.0728 29.8802L12.2087 29.8495C14.7441 29.2691 17.3258 28.9142 19.9238 28.789L20.0961 28.7794L19.7764 38.2557ZM20.1669 27.2306L11.8813 28.4176L11.8603 28.2644C11.5157 25.881 11.5712 23.4516 11.6688 21.3917L11.6746 21.2443H20.4158L20.1669 27.2306ZM20.4636 19.6496H11.8909L11.9062 19.4811C12.1264 17.1321 12.6911 14.6989 13.6349 12.0436L13.6751 11.9287L20.4617 12.4705L20.4636 19.6496ZM20.5153 10.8796L14.282 10.4987L14.3701 10.2957C15.9973 6.55881 18.063 3.89012 20.8733 1.90105L21.1433 1.70961L20.5115 10.8777L20.5153 10.8796ZM27.8858 2.98652C30.432 3.73505 33.7056 4.91625 36.4394 7.4337L36.604 7.58685L36.202 7.78978C34.9098 8.44833 33.6903 9.0686 32.2162 9.29833L32.1128 9.31556L32.0592 9.22367C31.8429 8.87333 31.6323 8.51534 31.4217 8.16117C30.388 6.42289 29.3197 4.62526 27.7403 3.25262L27.2005 2.78551L27.8858 2.98652ZM22.5829 3.30814L22.6365 2.14035L22.6461 1.91636L22.8567 2.00443C25.9389 3.32537 28.1424 5.65521 29.9974 9.56444L30.0855 9.74631L29.358 9.88031C27.0645 10.3111 24.8974 10.7188 22.5867 10.7935L22.4298 10.7992L22.4259 10.6423C22.3532 8.18032 22.4642 5.8141 22.581 3.30814H22.5829ZM22.3991 12.5241L30.8742 11.2472L30.9221 11.3544C31.9291 13.6192 32.4038 16.1519 32.3732 19.1001V19.2494L22.3991 19.6208V12.5241ZM22.3034 21.1811L32.3502 20.8671L32.3445 21.0318C32.2754 23.2525 32.0257 25.4639 31.5979 27.6441L31.573 27.7801L22.0641 27.1024L22.3034 21.1811ZM26.0288 37.779C24.9951 37.9456 23.9613 38.0853 22.8662 38.2327L21.7233 38.3878L21.5376 38.4146L21.9588 28.7239L22.1024 28.7181C24.7443 28.6186 27.4685 28.8234 30.9317 29.3786L31.1212 29.4073L31.0542 29.5854L30.8436 30.1405C30.2348 31.7678 29.492 33.2036 28.7262 34.6911C27.8839 36.3279 26.3103 37.735 26.0269 37.779H26.0288ZM37.4866 31.2624C35.9551 34.1991 33.317 35.5066 30.6962 36.483L30.2616 36.6438L30.5086 36.2532C31.6553 34.4384 32.4038 32.4608 33.1964 30.3645L33.407 29.8093L37.5747 31.0958L37.4866 31.2624ZM41.2101 20.7178C40.9344 24.0297 40.1304 26.8056 38.6831 29.4533L38.6257 29.5605L33.9124 28.3314L34.7203 20.7657L41.2254 20.5436L41.2101 20.7159V20.7178ZM41.2944 18.7766L41.2752 18.9106L34.7088 19.1403L34.6896 18.9987C34.6322 18.5775 34.5824 18.1467 34.5327 17.7332C34.4235 16.7952 34.3087 15.8246 34.1134 14.8961C33.9038 13.9747 33.6508 13.0637 33.3553 12.1661C33.2309 11.7641 33.1007 11.3525 32.982 10.9371L32.9437 10.8031L37.7948 8.8025L37.8656 8.8561C40.0672 10.4814 41.7347 15.3058 41.2944 18.7766Z" fill="black"/>
</svg>
