<svg width="206" height="200" viewBox="0 0 206 200" fill="none" xmlns="http://www.w3.org/2000/svg">
<g id="github 1" clip-path="url(#clip0_13_80)">
<path id="Vector" fill-rule="evenodd" clip-rule="evenodd" d="M103 0C46.4644 0 0.607666 45.912 0.607666 102.516C0.607666 147.799 30.1318 186.164 70.335 200C75.3604 200.629 77.2449 197.484 77.2449 194.969C77.2449 192.453 77.2449 186.164 77.2449 177.359C48.9771 183.648 42.6953 163.522 42.6953 163.522C38.2981 151.572 31.3882 148.428 31.3882 148.428C21.9656 142.138 32.0164 142.138 32.0164 142.138C42.0671 142.767 47.7207 152.83 47.7207 152.83C57.1433 168.553 71.5913 164.151 77.2449 161.635C77.8731 154.717 81.0139 150.314 83.5266 147.799C60.9124 145.283 37.0418 136.478 37.0418 96.8554C37.0418 85.5346 40.8108 76.7296 47.7207 69.1824C47.0925 67.2956 43.3235 56.6038 48.9771 42.7673C48.9771 42.7673 57.7715 40.2516 77.2449 53.4591C85.4111 50.9434 94.2056 50.3145 103 50.3145C111.794 50.3145 120.589 51.5723 128.755 53.4591C148.229 40.2516 157.023 42.7673 157.023 42.7673C162.677 56.6038 158.908 67.2956 158.279 69.8113C164.561 76.7296 168.958 86.1635 168.958 97.4843C168.958 137.107 145.088 145.283 122.473 147.799C126.242 150.943 129.383 157.233 129.383 166.667C129.383 180.503 129.383 191.195 129.383 194.969C129.383 197.484 131.268 200.629 136.293 200C177.125 186.164 206.021 147.799 206.021 102.516C205.392 45.912 159.536 0 103 0Z" fill="#000000"/>
</g>
<defs>
<clipPath id="clip0_13_80">
<rect width="204.785" height="200" fill="black" transform="translate(0.607666)"/>
</clipPath>
</defs>
</svg>
