<svg width="150" height="56" viewBox="0 0 150 56" fill="none" xmlns="http://www.w3.org/2000/svg">
<g clip-path="url(#clip0_2064_177)">
<path d="M43.682 25.9764C43.682 25.9764 43.682 25.9916 43.682 26.0008L41.7096 34.6504C41.6032 35.1397 41.12 35.4984 40.5609 35.4984H38.1811C38.0049 35.4984 37.8467 35.6169 37.7981 35.7871C35.6008 43.3213 32.6254 48.5003 28.6957 51.6094C25.3524 54.2566 21.2313 55.4906 15.7272 55.4906C10.7794 55.4906 7.44532 53.8827 4.61581 50.7098C0.877542 46.5156 -0.669427 39.65 0.266657 31.3772C1.95647 15.8467 9.92535 0.176443 25.2766 0.176443C29.9449 0.133894 33.6101 1.58969 36.1601 4.49519C38.8558 7.56786 40.2265 12.1966 40.2325 18.2538C40.2234 18.8039 39.7707 19.2476 39.2266 19.2476H27.9814C27.5834 19.2476 27.2278 18.886 27.2338 18.4878C27.1425 14.2998 25.9117 12.2574 23.4682 12.2574C19.1585 12.2574 16.6147 18.1718 15.2653 21.4511C13.381 26.0311 12.4236 31.0035 12.612 35.9573C12.7002 38.2642 13.0679 41.5071 15.2349 42.8504C17.1557 44.0417 19.8971 43.2515 21.5565 41.9325C23.2159 40.6134 24.5502 38.3311 25.1124 36.2492C25.1913 35.9605 25.1976 35.7356 25.1215 35.6352C25.0425 35.5319 24.8237 35.5076 24.6566 35.5076H21.7692C21.4592 35.5076 21.1523 35.3648 20.9669 35.1337C20.8119 34.9391 20.7511 34.6991 20.8058 34.4622L22.7813 25.7971C22.8786 25.3536 23.2767 25.0191 23.766 24.9585V24.937H42.7156C42.7613 24.937 42.8068 24.937 42.8494 24.9462C43.3418 25.01 43.6883 25.472 43.6791 25.9764H43.682Z" fill="#0E100F"/>
<path d="M76.3113 16.0351C76.3022 16.5761 75.8493 17.0198 75.3054 17.0198H64.9477C64.2699 17.0198 63.7014 16.4636 63.7014 15.7859C63.7014 12.7314 62.656 11.2453 60.5165 11.2453C58.3768 11.2453 56.9969 12.5734 56.9575 14.8923C56.912 17.4787 58.3585 19.828 62.4798 23.8672C67.9048 29.0096 70.0778 33.5654 69.9745 39.5861C69.8042 49.3238 63.2517 55.6181 53.2831 55.6181C48.1922 55.6181 44.3021 54.2413 41.7157 51.5274C39.0899 48.7706 37.8863 44.7254 38.1386 39.504C38.1506 38.963 38.6004 38.5224 39.1445 38.5224H49.8579C50.1497 38.5224 50.4384 38.6652 50.6329 38.9084C50.8 39.1181 50.8698 39.3764 50.8274 39.6196C50.7087 41.5039 51.034 42.9109 51.7664 43.6891C52.2376 44.1935 52.8911 44.449 53.7085 44.449C55.6872 44.449 56.8481 43.0356 56.8905 40.5738C56.9271 38.4463 56.2614 36.5803 52.6327 32.8087C47.9461 28.1799 43.7428 23.3992 43.8735 15.8801C43.9496 11.5218 45.6636 7.53435 48.7 4.65315C51.9092 1.60785 56.3011 9.15527e-05 61.3977 9.15527e-05C66.5038 0.0365623 70.3727 1.50755 72.8981 4.37354C75.2902 7.09061 76.4421 11.0143 76.3144 16.0351H76.3113Z" fill="#0E100F"/>
<path d="M108.418 53.7855L108.484 2.00008C108.494 1.45606 108.059 1.01233 107.515 1.01233H91.4832C90.9451 1.01233 90.7082 1.48037 90.5531 1.79037L67.3426 53.4696V53.4787C67.3426 53.4787 67.3363 53.4877 67.3334 53.4908C67.0751 54.1259 67.5644 54.8068 68.2453 54.8068H79.4507C80.0555 54.8068 80.4569 54.6214 80.6543 54.2355L82.879 48.8316C83.1526 48.1112 83.2043 48.0446 83.9822 48.0446H94.6896C95.434 48.0446 95.4494 48.0597 95.4371 48.7953L95.1971 53.8189C95.188 54.3631 95.6225 54.8068 96.1667 54.8068H107.488C107.776 54.8068 108.047 54.6852 108.226 54.4695C108.387 54.2779 108.454 54.0349 108.418 53.7855ZM88.5836 36.4953C88.4803 36.4953 88.3982 36.4924 88.3315 36.4864C88.1642 36.4712 88.0518 36.3099 88.0944 36.1459C88.1156 36.0698 88.1461 35.9697 88.1916 35.845L96.2213 15.7709C96.2912 15.5733 96.3793 15.3788 96.4705 15.1904C96.6013 14.9199 96.7592 14.9016 96.8079 15.1022C96.8505 15.2694 95.8869 35.7142 95.8869 35.7142C95.8111 36.4801 95.7776 36.5107 95.03 36.5745L88.5928 36.4984H88.5776L88.5836 36.4953Z" fill="#0E100F"/>
<path d="M131.254 1.01206H122.744C122.295 1.01206 121.79 1.25216 121.671 1.79314C121.671 1.79314 109.827 53.752 109.827 53.758C109.776 53.9981 109.831 54.2352 109.989 54.4326C110.174 54.6635 110.481 54.8066 110.791 54.8066H121.428C122 54.8066 122.392 54.5239 122.498 54.0315C122.498 54.0315 123.787 48.1596 123.79 48.1416C123.881 47.6826 123.723 47.327 123.316 47.1111C123.124 47.0109 122.933 46.9105 122.744 46.8103L120.9 45.8407L119.064 44.8743C118.827 44.7496 118.59 44.6251 118.356 44.5004C118.237 44.4397 118.164 44.3181 118.167 44.1845C118.17 43.9868 118.334 43.8257 118.532 43.8257L124.361 43.8532C126.106 43.8621 127.85 43.7376 129.564 43.4186C141.636 41.1664 149.654 31.3952 149.885 18.1017C150.082 6.75622 143.815 1.00598 131.263 1.00598L131.254 1.01206ZM128.358 31.9363H128.13C127.619 31.9363 127.528 31.8785 127.513 31.8602C127.504 31.8481 130.874 16.8951 130.877 16.8738C130.962 16.4422 130.959 16.193 130.695 16.0471C130.357 15.8587 125.437 13.2359 125.437 13.2359C125.318 13.172 125.249 13.0505 125.252 12.9167C125.255 12.7222 125.416 12.5611 125.613 12.5611H133.394C135.816 12.6371 137.165 14.8254 137.102 18.5636C136.989 25.0372 133.944 31.7082 128.358 31.9363Z" fill="#0E100F"/>
<path d="M139.91 54.8066C141.661 54.8066 143.032 53.4602 143.032 51.6458C143.032 49.8313 141.661 48.485 139.91 48.485C138.16 48.485 136.774 49.8313 136.774 51.6458C136.774 53.4602 138.157 54.8066 139.91 54.8066ZM137.518 51.6335C137.518 50.0928 138.433 49.0838 139.91 49.0838C141.387 49.0838 142.287 50.0897 142.287 51.6335C142.287 53.1776 141.387 54.1927 139.91 54.1927C138.433 54.1927 137.518 53.1867 137.518 51.6335ZM138.54 53.3295H139.533V52.1138H139.822C140.567 52.1138 140.242 53.1867 140.424 53.3295H141.454V53.2777C141.26 53.2262 141.573 51.8798 140.71 51.737V51.7216C141.129 51.6335 141.4 51.3297 141.4 50.8739C141.4 50.2204 140.928 49.8677 140.169 49.8677H138.534V53.3295H138.54ZM139.533 51.3814V50.5698H139.874C140.214 50.5698 140.409 50.6762 140.409 50.974C140.409 51.2476 140.214 51.3783 139.874 51.3783H139.533V51.3814Z" fill="#0E100F"/>
</g>
<defs>
<clipPath id="clip0_2064_177">
<rect width="150" height="55.618" fill="white"/>
</clipPath>
</defs>
</svg>
